<?xml version="1.0" encoding="UTF-8" standalone="no"?>
<svg width="16px" height="10px" viewBox="0 0 16 10" version="1.1" xmlns="http://www.w3.org/2000/svg"
     xmlns:xlink="http://www.w3.org/1999/xlink">
    <!-- Generator: Sketch 3.8.3 (29802) - http://www.bohemiancoding.com/sketch -->
    <title>Shape</title>
    <desc>Created with Sketch.</desc>
    <defs></defs>
    <g id="forms" stroke="none" stroke-width="1" fill="none" fill-rule="evenodd">
        <g id="Artboard" transform="translate(-595.000000, -498.000000)" fill="#999999">
            <g id="chevron" transform="translate(588.000000, 487.000000)">
                <path d="M11.1736534,8.8386096 C11.7641656,8.2537968 12.7213851,8.2537968 13.3118973,8.8386096 L19.3606778,14.8290096 C19.4952631,14.9615472 19.5943119,15.1150512 19.6676534,15.276792 C19.6737022,15.2902704 19.6827753,15.303 19.6888241,15.3172272 C19.7160436,15.3823728 19.7334339,15.4505136 19.7508241,15.5179056 C19.757629,15.5448624 19.7689705,15.5703216 19.7750192,15.5972784 C19.8128241,15.7889712 19.8128241,15.9866544 19.7750192,16.1783472 C19.7697265,16.2038064 19.7591412,16.2270192 19.7530924,16.2517296 C19.7357022,16.3221168 19.7175558,16.3917552 19.6895802,16.4591472 C19.6842875,16.471128 19.6767265,16.4816112 19.6714339,16.493592 C19.5980924,16.6575792 19.4975314,16.8125808 19.3614339,16.9473648 L13.3126534,22.9377648 C13.0170192,23.2297968 12.6298973,23.3758128 12.2435314,23.3758128 C11.8571656,23.3758128 11.4700436,23.2297968 11.1744095,22.937016 C10.5838973,22.3522032 10.5838973,21.4042224 11.1744095,20.8194096 L16.1533119,15.8878128 L11.1736534,10.956216 C10.5831412,10.3714032 10.5831412,9.4234224 11.1736534,8.8386096 L11.1736534,8.8386096 Z"
                      id="Shape"
                      transform="translate(15.267071, 15.887906) rotate(90.000000) translate(-15.267071, -15.887906) "></path>
            </g>
        </g>
    </g>
</svg>