<svg width="64" height="60" viewBox="0 0 64 60" xmlns="http://www.w3.org/2000/svg">
  <title>
    icon-fist-bump
  </title>
  <g fill="none" fill-rule="evenodd">
    <path d="M52 30c0 11.046-8.954 20-20 20s-20-8.954-20-20c0-11.05 8.954-20 20-20s20 8.95 20 20z" fill="#D6D6D6"/>
    <g stroke-width="2" stroke="#D6252C">
      <path d="M24 29H6l-2-1H0M31 11c1.656 0 3 1.344 3 3s-1.344 3-3 3M27 11h4c1.656 0 3-1.344 3-3s-1.344-3-3-3h-4M24 17c-1.656 0-3-1.344-3-3 0-1.04.527-1.953 1.33-2.492M24 23c-1.656 0-3-1.344-3-3s1.344-3 3-3h7c1.656 0 3 1.344 3 3s-1.344 3-3 3"/>
      <path d="M31 29c1.656 0 3-1.344 3-3s-1.344-3-3-3h-7c-1.656 0-3 1.344-3 3s1.344 3 3 3h7zM4 9v4M17 11c0 4.418-3.582 8-8 8"/>
      <path d="M16 8h5s1 5 4 5c1.104 0 2-.894 2-2V5c0-2.21-1.79-4-4-4H12L4 9H0M21 8V5M40 59h18l2-1h4M33 41c-1.656 0-3 1.344-3 3s1.344 3 3 3M37 41h-4c-1.656 0-3-1.344-3-3s1.344-3 3-3h4M40 47c1.656 0 3-1.344 3-3 0-1.04-.527-1.953-1.33-2.493M40 53c1.656 0 3-1.344 3-3s-1.344-3-3-3h-7c-1.656 0-3 1.344-3 3s1.344 3 3 3"/>
      <path d="M33 59c-1.656 0-3-1.344-3-3s1.344-3 3-3h7c1.656 0 3 1.344 3 3s-1.344 3-3 3h-7zM60 39v4M47 41c0 4.418 3.582 8 8 8"/>
      <path d="M48 38h-5s-1 5-4 5c-1.104 0-2-.895-2-2v-6c0-2.21 1.79-4 4-4h11l8 8h4M43 38v-3M38 23l3-6M41 26l6-3M23 34l-6 3M26 37l-3 6"/>
    </g>
  </g>
</svg>