<svg id="Layer_1" data-name="Layer 1" xmlns="http://www.w3.org/2000/svg" viewBox="0 0 64 60"><defs><style>.cls-1{fill:#d7d6d6;}.cls-2{fill:#d6272c;}</style></defs><title>Untitled-2</title><circle class="cls-1" cx="43" cy="21" r="21"/><path class="cls-2" d="M36,50H4a4,4,0,0,1-4-4V8A4,4,0,0,1,4,4H52a4,4,0,0,1,4,4v6H54V8a2,2,0,0,0-2-2H4A2,2,0,0,0,2,8V46a2,2,0,0,0,2,2H36Z"/><rect class="cls-2" x="32" y="49" width="2" height="10"/><rect class="cls-2" x="22" y="49" width="2" height="10"/><rect class="cls-2" x="20" y="58" width="16" height="2"/><rect class="cls-2" x="1" y="40" width="35" height="2"/><rect class="cls-2" x="27" y="44" width="2" height="2"/><path class="cls-2" d="M61,60H41a3,3,0,0,1-3-3V32h2V57a1,1,0,0,0,1,1H61a1,1,0,0,0,1-1V19a1,1,0,0,0-1-1H41a1,1,0,0,0-1,1v3H38V19a3,3,0,0,1,3-3H61a3,3,0,0,1,3,3V57A3,3,0,0,1,61,60Z"/><rect class="cls-2" x="49" y="54" width="4" height="2"/><rect class="cls-2" x="32" y="28" width="22" height="2"/><rect class="cls-2" x="25" y="24" width="19" height="2"/><path class="cls-2" d="M28,29a1,1,0,0,1-.71-.29L23.59,25l3.71-3.71a1,1,0,0,1,1.41,1.41L26.41,25l2.29,2.29A1,1,0,0,1,28,29Z"/><path class="cls-2" d="M54,30a1,1,0,0,1-.71-.29l-3-3a1,1,0,0,1,1.41-1.41l3,3A1,1,0,0,1,54,30Z"/><path class="cls-2" d="M51,33a1,1,0,0,1-.71-1.71l3-3a1,1,0,0,1,1.41,1.41l-3,3A1,1,0,0,1,51,33Z"/><rect class="cls-2" x="39" y="50" width="24" height="2"/><polygon class="cls-2" points="6 38 4 38 4 8 52 8 52 10 6 10 6 38"/><rect class="cls-2" x="8" y="16" width="2" height="2"/><rect class="cls-2" x="12" y="16" width="2" height="2"/><rect class="cls-2" x="16" y="16" width="2" height="2"/><rect class="cls-2" x="8" y="20" width="2" height="2"/><rect class="cls-2" x="12" y="20" width="2" height="2"/><rect class="cls-2" x="16" y="20" width="2" height="2"/><rect class="cls-2" x="8" y="24" width="2" height="2"/><rect class="cls-2" x="12" y="24" width="2" height="2"/><rect class="cls-2" x="20" y="16" width="2" height="2"/><rect class="cls-2" x="8" y="12" width="2" height="2"/><rect class="cls-2" x="12" y="12" width="2" height="2"/><rect class="cls-2" x="16" y="12" width="2" height="2"/><rect class="cls-2" x="20" y="12" width="2" height="2"/><rect class="cls-2" x="24" y="16" width="2" height="2"/><rect class="cls-2" x="24" y="12" width="2" height="2"/><rect class="cls-2" x="54" y="42" width="2" height="2"/><rect class="cls-2" x="58" y="42" width="2" height="2"/><rect class="cls-2" x="54" y="38" width="2" height="2"/><rect class="cls-2" x="58" y="38" width="2" height="2"/><rect class="cls-2" x="50" y="38" width="2" height="2"/><rect class="cls-2" x="42" y="42" width="2" height="2"/><rect class="cls-2" x="46" y="42" width="2" height="2"/><rect class="cls-2" x="50" y="42" width="2" height="2"/><rect class="cls-2" x="54" y="46" width="2" height="2"/><rect class="cls-2" x="58" y="46" width="2" height="2"/><rect class="cls-2" x="42" y="46" width="2" height="2"/><rect class="cls-2" x="46" y="46" width="2" height="2"/><rect class="cls-2" x="50" y="46" width="2" height="2"/></svg>