<svg width="68" height="65" viewBox="0 0 68 65" xmlns="http://www.w3.org/2000/svg">
  <title>
    icon-learn
  </title>
  <g fill="none" fill-rule="evenodd">
    <path d="M66 22c0 11.597-9.4 21-21 21s-21-9.403-21-21c0-11.604 9.4-21 21-21s21 9.396 21 21z" fill="#D6D6D6"/>
    <g transform="translate(3 2)" stroke="#D6252C" stroke-width="2">
      <path d="M12 20L0 15 31 0l31 15-12 5"/>
      <path d="M12 32V20c0-3.313 8.507-6 19-6s19 2.687 19 6v12M4 17v15"/>
      <circle cx="4" cy="35" r="3"/>
      <path d="M37 60c0 1.104-.896 2-2 2h-8c-1.105 0-2-.896-2-2V46c0-1.104.895-2 2-2h8c1.104 0 2 .896 2 2v14zM31 47v4M31 17v6c0 1.657-1.344 3-3 3h-5c-1.656 0-3 1.343-3 3s1.344 3 3 3h16c1.656 0 3 1.343 3 3s-1.344 3-3 3h-5c-1.656 0-3 1.343-3 3v3"/>
      <path d="M34 26c9 0 16 3.014 16 6 0 1.396-1.51 2.682-4.043 3.7M28 38c-9 0-16-3.01-16-6 0-1.358 1.43-2.61 3.838-3.616M40 57h2M40 53h2M40 49h2M20 57h2M20 53h2M20 49h2"/>
    </g>
  </g>
</svg>