<svg width="64" height="64" viewBox="0 0 64 64" xmlns="http://www.w3.org/2000/svg">
  <title>
    icon-tools
  </title>
  <g transform="translate(1 1)" fill="none" fill-rule="evenodd">
    <circle fill="#D7D7D7" cx="42" cy="42" r="21"/>
    <g stroke="#D6252C" stroke-width="2">
      <path d="M37 42c0-1.572 1.215-2.85 2.755-2.975-.492-3.29-1.78-6.313-3.67-8.875-.54.525-1.273.85-2.085.85-1.656 0-3-1.344-3-3 0-.812.325-1.545.85-2.086-2.562-1.89-5.584-3.177-8.875-3.67C22.85 23.785 21.572 25 20 25s-2.85-1.215-2.975-2.755c-3.29.492-6.314 1.78-8.875 3.67.525.54.85 1.273.85 2.085 0 1.656-1.344 3-3 3-.812 0-1.545-.325-2.086-.85-1.89 2.56-3.177 5.584-3.67 8.875C1.785 39.15 3 40.428 3 42S1.785 44.85.245 44.975c.492 3.29 1.78 6.313 3.67 8.875C4.454 53.325 5.187 53 6 53c1.656 0 3 1.344 3 3 0 .812-.325 1.545-.85 2.086 2.56 1.89 5.584 3.177 8.875 3.67C17.15 60.215 18.428 59 20 59s2.85 1.215 2.975 2.755c3.29-.492 6.313-1.78 8.875-3.67-.525-.54-.85-1.273-.85-2.085 0-1.656 1.344-3 3-3 .812 0 1.545.325 2.086.85 1.89-2.562 3.177-5.584 3.67-8.875C38.215 44.85 37 43.572 37 42z"/>
      <circle cx="20" cy="42" r="9"/>
      <circle cx="20" cy="42" r="3"/>
      <path d="M59 15c0-1.555 1.188-2.82 2.703-2.97-.396-1.972-1.176-3.804-2.264-5.414-.43.237-.915.384-1.44.384-1.656 0-3-1.344-3-3 0-.525.146-1.01.384-1.44C53.774 1.472 51.942.693 49.97.296 49.82 1.812 48.556 3 47 3c-1.555 0-2.82-1.188-2.97-2.703-1.972.396-3.804 1.176-5.414 2.264.238.43.384.915.384 1.44 0 1.656-1.344 3-3 3-.525 0-1.01-.147-1.44-.384-1.087 1.61-1.866 3.442-2.263 5.413C33.812 12.18 35 13.444 35 15c0 1.555-1.188 2.82-2.703 2.97.396 1.972 1.176 3.804 2.264 5.414.43-.238.915-.384 1.44-.384 1.656 0 3 1.344 3 3 0 .525-.146 1.01-.384 1.44 1.61 1.088 3.442 1.867 5.413 2.264C44.18 28.188 45.444 27 47 27c1.555 0 2.82 1.188 2.97 2.703 1.972-.396 3.804-1.176 5.414-2.264-.238-.43-.384-.915-.384-1.44 0-1.656 1.344-3 3-3 .525 0 1.01.146 1.44.384 1.087-1.61 1.866-3.442 2.263-5.413C60.188 17.82 59 16.556 59 15z"/>
      <circle cx="47" cy="15" r="4"/>
      <path d="M0 28v-1C1.03 10.81 16.55 0 33 0h2M34 62h1c16.19-1.03 27-16.55 27-33v-2"/>
    </g>
  </g>
</svg>