<svg width="64" height="64" viewBox="0 0 64 64" xmlns="http://www.w3.org/2000/svg">
  <title>
    icon-api
  </title>
  <g fill="none" fill-rule="evenodd">
    <path d="M21 42c11.598 0 21-9.402 21-21S32.598 0 21 0 0 9.402 0 21s9.402 21 21 21z" fill="#D6D6D6"/>
    <g stroke="#D6252C" stroke-width="2">
      <path d="M19 36V24c0-1.656 1.344-3 3-3h1c1.656 0 3 1.344 3 3v12M19 30h7M30 36V21h4c1.656 0 3 1.344 3 3v3c0 1.656-1.344 3-3 3h-4M43 21v14M40 21h6M40 35h6"/>
      <path d="M63 10c0-1.657-1.344-3-3-3H4c-1.656 0-3 1.343-3 3v40c0 1.657 1.344 3 3 3h56c1.656 0 3-1.343 3-3V10zM38 53l2 10M24 63l2-10M19 63h26M31 49h2M60 28H49"/>
      <path d="M60 20h-4l-4 4h-3M49 32h3l4 4h4M4 28h11M4 20h4l4 4h3M15 32h-3l-4 4H4M5 17v-6h54v6M59 39v6H5v-6M4 24h2M4 32h2M58 24h2M58 32h2M49 38c0 .553-.447 1-1 1H16c-.553 0-1-.447-1-1V18c0-.553.447-1 1-1h32c.553 0 1 .447 1 1v20z"/>
    </g>
  </g>
</svg>