<?xml version="1.0" standalone="no"?>
<!DOCTYPE svg PUBLIC "-//W3C//DTD SVG 20010904//EN"
 "http://www.w3.org/TR/2001/REC-SVG-20010904/DTD/svg10.dtd">
<svg version="1.0" xmlns="http://www.w3.org/2000/svg"
 width="700.000000pt" height="700.000000pt" viewBox="0 0 700.000000 700.000000"
 preserveAspectRatio="xMidYMid meet">
<metadata>
Created by potrace 1.11, written by Peter Selinger 2001-2013
</metadata>
<g transform="translate(0.000000,700.000000) scale(0.100000,-0.100000)"
fill="#000000" stroke="none">
<path d="M2348 6994 c-2 -1 -28 -4 -58 -7 -217 -18 -438 -152 -569 -346 -113
-166 -154 -346 -127 -555 15 -117 94 -295 167 -376 91 -102 674 -680 1030
-1021 31 -30 145 -139 254 -244 109 -104 252 -242 318 -305 65 -63 122 -115
127 -115 5 0 149 137 321 305 171 168 351 343 399 390 256 250 629 610 729
706 273 260 332 327 393 449 86 170 105 374 52 555 -78 267 -302 484 -564 549
-101 24 -266 21 -370 -7 -80 -22 -207 -82 -279 -130 -190 -130 -315 -360 -324
-599 -6 -154 31 -293 121 -454 90 -160 110 -229 107 -360 -4 -104 -21 -169
-74 -266 -110 -204 -284 -319 -496 -327 -172 -7 -374 100 -484 257 -59 84
-102 226 -103 341 -1 128 27 221 111 364 56 97 91 194 106 302 8 53 9 173 1
215 -3 17 -8 44 -11 62 -3 18 -10 45 -16 60 -6 15 -12 36 -15 47 -5 28 -43
105 -80 161 -103 161 -322 303 -515 334 -70 12 -147 19 -151 15z"/>
<path d="M748 5415 c-2 -1 -28 -5 -58 -8 -182 -18 -391 -138 -511 -293 -113
-146 -169 -303 -170 -476 -1 -217 87 -414 266 -593 73 -73 269 -163 395 -180
83 -12 213 -7 293 11 91 21 160 49 270 113 48 27 87 48 87 45 0 -2 12 2 28 9
113 58 319 51 468 -14 157 -69 287 -222 330 -390 68 -264 -61 -517 -331 -650
-110 -53 -178 -69 -283 -65 -117 5 -158 20 -352 123 -205 110 -377 133 -605
80 -93 -22 -242 -108 -319 -184 -102 -101 -194 -263 -232 -403 -48 -182 -15
-406 84 -568 208 -343 634 -480 988 -317 142 65 201 115 483 411 187 196 622
644 1111 1144 157 160 285 295 285 299 0 5 -81 93 -180 196 -99 103 -205 213
-235 245 -30 32 -108 113 -174 181 -462 482 -1024 1048 -1116 1125 -58 48
-188 109 -286 134 -65 17 -226 34 -236 25z"/>
<path d="M6080 5404 c-142 -28 -271 -83 -351 -149 -79 -65 -867 -858 -1049
-1055 -17 -19 -82 -87 -144 -150 -319 -330 -511 -533 -511 -541 0 -4 146 -158
325 -340 179 -182 354 -361 389 -398 35 -36 179 -185 321 -331 141 -146 306
-316 366 -379 271 -285 339 -342 476 -406 348 -160 764 -34 979 299 40 60 92
185 104 246 4 19 8 82 10 140 6 242 -100 469 -308 656 -33 30 -161 96 -229
118 -111 37 -258 50 -370 32 -75 -12 -197 -58 -290 -109 -130 -73 -181 -94
-262 -108 -160 -27 -332 23 -482 142 -81 64 -118 109 -160 194 -107 216 -64
454 113 639 143 149 365 211 578 162 38 -9 80 -23 92 -31 12 -8 26 -15 32 -15
5 0 39 -18 75 -40 261 -159 576 -163 833 -11 118 69 203 164 290 321 28 50 58
132 68 185 2 11 7 34 10 50 6 33 7 165 1 205 -33 244 -186 465 -406 588 -59
33 -184 78 -246 88 -65 11 -196 10 -254 -2z"/>
<path d="M3364 2862 c-66 -64 -202 -196 -303 -292 -101 -96 -220 -210 -264
-253 -349 -333 -918 -898 -1031 -1022 -136 -149 -207 -413 -170 -630 47 -271
237 -501 499 -606 94 -37 171 -49 295 -45 133 4 186 16 294 66 291 136 457
395 456 712 0 85 -14 189 -34 243 -20 57 -35 89 -63 140 -101 181 -128 266
-125 398 6 269 183 500 437 572 135 38 314 14 417 -57 14 -10 29 -18 32 -18
16 0 111 -101 154 -163 87 -129 121 -234 117 -363 -2 -49 -5 -96 -8 -104 -2
-8 -7 -28 -12 -45 -10 -36 -36 -92 -98 -206 -85 -155 -117 -281 -110 -438 9
-232 136 -465 324 -593 45 -30 180 -100 215 -111 198 -61 372 -59 534 6 188
76 343 228 428 418 89 198 88 426 -3 625 -66 145 -116 203 -450 521 -88 84
-212 202 -275 264 -166 162 -682 664 -920 898 -113 110 -207 201 -210 201 -3
0 -59 -53 -126 -118z"/>
</g>
</svg>
